<svg width="359" height="187" viewBox="0 0 359 187" fill="none" xmlns="http://www.w3.org/2000/svg">
<path d="M23.1586 140.66H0.771983C0.257348 140.66 3.05176e-05 140.336 3.05176e-05 139.689L0.386007 3.01137C0.386007 2.49328 0.643325 2.23424 1.15796 2.23424H25.2815C25.7961 2.23424 26.2464 2.49328 26.6324 3.01137L44.6768 29.2394L62.6247 3.01137C63.0107 2.49328 63.4932 2.23424 64.0721 2.23424H88.2921C88.8711 2.23424 89.1606 2.49328 89.1606 3.01137L89.5466 139.689C89.5466 140.336 89.2893 140.66 88.7746 140.66H66.388C65.8733 140.66 65.616 140.336 65.616 139.689L65.423 38.1764L44.6768 68.4843L24.1236 38.1764L24.0271 88.9324L23.9306 139.689C23.9306 140.336 23.6733 140.66 23.1586 140.66Z" fill="#FF5353"/>
<path d="M142.522 142.603C135.574 142.603 129.141 140.789 123.223 137.163C117.305 133.536 112.576 128.679 109.038 122.592C105.565 116.439 103.828 109.737 103.828 102.484L104.214 3.01137C104.214 2.49328 104.471 2.23424 104.986 2.23424H127.179C127.694 2.23424 127.951 2.49328 127.951 3.01137V102.484C127.951 106.952 129.366 110.773 132.197 113.946C135.027 117.055 138.469 118.609 142.522 118.609C146.768 118.609 150.306 117.055 153.136 113.946C155.967 110.773 157.382 106.952 157.382 102.484V3.01137C157.382 2.49328 157.639 2.23424 158.154 2.23424H180.348C180.862 2.23424 181.119 2.49328 181.119 3.01137L181.505 102.484C181.505 109.802 179.769 116.537 176.295 122.689C172.757 128.776 168.061 133.633 162.207 137.26C156.353 140.822 149.791 142.603 142.522 142.603Z" fill="#FF5353"/>
<path d="M233.226 142.603C226.086 142.603 219.653 140.822 213.927 137.26C208.138 133.698 203.474 128.906 199.936 122.883C196.462 116.86 194.725 110.125 194.725 102.678V39.6335C194.725 32.3803 196.494 25.7747 200.032 19.8167C203.506 13.794 208.17 9.00172 214.024 5.43989C219.878 1.8133 226.279 0 233.226 0C240.496 0 247.057 1.74854 252.911 5.24561C258.765 8.80744 263.397 13.5673 266.806 19.5253C270.28 25.4833 272.017 32.186 272.017 39.6335V48.7647C272.017 49.2828 271.695 49.5418 271.052 49.5418H248.858C248.344 49.5418 248.086 49.2828 248.086 48.7647V41.1877C248.086 36.1364 246.671 31.9593 243.841 28.6566C241.01 25.3538 237.472 23.7024 233.226 23.7024C229.431 23.7024 226.054 25.289 223.094 28.4623C220.135 31.6355 218.656 35.3593 218.656 39.6335V102.678C218.656 107.017 220.103 110.773 222.998 113.946C225.893 117.055 229.302 118.609 233.226 118.609C237.472 118.609 241.01 117.087 243.841 114.043C246.671 110.935 248.086 107.146 248.086 102.678V92.8666H234.288C233.58 92.8666 233.226 92.5428 233.226 91.8952V69.65C233.226 69.0024 233.58 68.6786 234.288 68.6786H271.245C271.76 68.6786 272.017 69.0024 272.017 69.65V102.678C272.017 110.125 270.28 116.86 266.806 122.883C263.268 128.906 258.604 133.698 252.815 137.26C247.025 140.822 240.496 142.603 233.226 142.603Z" fill="#FF5353"/>
<path d="M279.35 139.689L303.86 3.01137C303.989 2.49328 304.31 2.23424 304.825 2.23424H333.484C333.998 2.23424 334.32 2.49328 334.449 3.01137L357.993 139.689C358.058 140.336 357.8 140.66 357.221 140.66H335.317C334.674 140.66 334.32 140.336 334.256 139.689L332.133 125.117H305.211L303.088 139.689C303.024 140.336 302.702 140.66 302.123 140.66H280.122C279.608 140.66 279.35 140.336 279.35 139.689ZM318.045 47.9876L309.167 103.844H328.177L320.071 47.9876L318.913 40.6049L318.045 47.9876Z" fill="#FF5353"/>
<path d="M9.69745 166.064C12.6662 166.064 14.9514 166.743 16.553 168.102C18.1546 169.462 18.9554 171.376 18.9554 173.846C18.9554 174.516 18.8773 175.281 18.721 176.143C18.3499 178.21 17.598 180 16.4651 181.513C15.3323 183.006 13.8772 184.155 12.0998 184.959C10.342 185.743 8.33023 186.136 6.06457 186.136H0L3.60358 166.064H9.69745ZM6.35754 184.557C9.20915 184.557 11.5139 183.82 13.2717 182.345C15.0296 180.852 16.1429 178.785 16.6116 176.143C16.7484 175.454 16.8167 174.764 16.8167 174.075C16.8167 172.046 16.1917 170.476 14.9417 169.366C13.6917 168.256 11.8362 167.7 9.37517 167.7H5.36143L2.34379 184.557H6.35754Z" fill="white"/>
<path d="M25.0802 167.499C24.7091 167.499 24.4063 167.394 24.172 167.183C23.9376 166.954 23.8204 166.657 23.8204 166.293C23.8204 165.796 23.9962 165.384 24.3478 165.059C24.6993 164.714 25.1193 164.542 25.6075 164.542C25.9786 164.542 26.2716 164.647 26.4865 164.857C26.7208 165.068 26.838 165.346 26.838 165.69C26.838 166.188 26.6623 166.619 26.3107 166.982C25.9591 167.327 25.5489 167.499 25.0802 167.499ZM25.5489 170.457L22.7364 186.136H20.6856L23.4981 170.457H25.5489Z" fill="white"/>
<path d="M32.7126 186.366C31.0915 186.366 29.7731 186.002 28.7575 185.274C27.7418 184.528 27.234 183.513 27.234 182.231C27.234 182.001 27.2438 181.829 27.2633 181.714H29.2555C29.1774 182.633 29.4508 183.37 30.0759 183.925C30.7009 184.48 31.6189 184.758 32.8298 184.758C34.0603 184.758 35.0467 184.509 35.7889 184.011C36.5311 183.494 36.9022 182.814 36.9022 181.972C36.9022 181.474 36.7459 181.053 36.4334 180.709C36.1209 180.364 35.7303 180.086 35.2615 179.876C34.8123 179.646 34.1775 179.388 33.3572 179.101C32.3415 178.737 31.5212 178.402 30.8962 178.095C30.2907 177.77 29.7634 177.33 29.3141 176.775C28.8844 176.2 28.6696 175.482 28.6696 174.621C28.6696 173.759 28.9235 172.994 29.4313 172.324C29.9391 171.654 30.6325 171.137 31.5114 170.773C32.4099 170.409 33.4255 170.227 34.5584 170.227C36.1404 170.227 37.4295 170.61 38.4256 171.376C39.4413 172.142 39.9491 173.156 39.9491 174.42C39.9491 174.688 39.9393 174.889 39.9198 175.023H37.9862C38.0057 174.946 38.0155 174.822 38.0155 174.65C38.0155 173.807 37.6737 173.128 36.99 172.611C36.326 172.094 35.4666 171.835 34.4119 171.835C33.3572 171.835 32.4782 172.084 31.7751 172.582C31.0915 173.061 30.7497 173.712 30.7497 174.535C30.7497 175.09 30.9157 175.559 31.2478 175.942C31.5798 176.306 31.99 176.602 32.4782 176.832C32.9665 177.062 33.6208 177.33 34.4412 177.636C35.4178 178 36.199 178.335 36.785 178.641C37.3904 178.947 37.8983 179.369 38.3084 179.905C38.7186 180.441 38.9237 181.111 38.9237 181.915C38.9237 183.274 38.3475 184.356 37.1951 185.16C36.0428 185.964 34.5486 186.366 32.7126 186.366Z" fill="white"/>
<path d="M52.1006 170.227C53.4483 170.227 54.6007 170.486 55.5577 171.003C56.5148 171.5 57.2375 172.19 57.7258 173.07C58.2336 173.951 58.4875 174.956 58.4875 176.085C58.4875 176.602 58.4484 177.062 58.3703 177.464C58.2531 178.038 58.1359 178.555 58.0187 179.014H44.747C44.6884 179.378 44.6591 179.723 44.6591 180.048C44.6591 181.522 45.1083 182.661 46.0068 183.465C46.9248 184.269 48.0869 184.671 49.4932 184.671C50.8409 184.671 52.0225 184.356 53.0382 183.724C54.0538 183.092 54.796 182.24 55.2648 181.168H57.4621C56.798 182.7 55.7335 183.954 54.2687 184.93C52.8233 185.887 51.1338 186.366 49.2002 186.366C47.208 186.366 45.6064 185.81 44.3954 184.7C43.204 183.571 42.6083 182.039 42.6083 180.106C42.6083 179.531 42.6669 178.928 42.7841 178.297C43.077 176.669 43.663 175.243 44.5419 174.018C45.4404 172.793 46.5439 171.855 47.8525 171.204C49.1611 170.553 50.5772 170.227 52.1006 170.227ZM56.2609 177.521C56.3585 176.985 56.4074 176.535 56.4074 176.172C56.4074 174.812 55.9679 173.769 55.089 173.042C54.2101 172.314 53.087 171.95 51.7198 171.95C50.7237 171.95 49.7666 172.161 48.8486 172.582C47.9306 173.003 47.1299 173.635 46.4462 174.477C45.7626 175.32 45.2939 176.334 45.04 177.521H56.2609Z" fill="white"/>
<path d="M70.9409 170.17C72.5816 170.17 73.8902 170.61 74.8668 171.491C75.8629 172.352 76.361 173.616 76.361 175.281C76.361 175.894 76.3121 176.449 76.2145 176.947L74.5445 186.136H72.523L74.1344 177.177C74.2125 176.736 74.2516 176.267 74.2516 175.77C74.2516 174.506 73.9 173.549 73.1968 172.898C72.4937 172.247 71.5074 171.922 70.2378 171.922C68.6948 171.922 67.3764 172.4 66.2827 173.357C65.1889 174.315 64.476 175.722 64.1439 177.579V177.492L62.5912 186.136H60.5404L63.3529 170.457H65.4037L64.9057 173.156C65.5893 172.199 66.4584 171.462 67.5131 170.945C68.5679 170.428 69.7105 170.17 70.9409 170.17ZM66.5463 168.734C66.8198 167.873 67.2202 167.212 67.7475 166.753C68.2944 166.293 68.9194 166.064 69.6226 166.064C69.9741 166.064 70.2573 166.121 70.4722 166.236C70.7066 166.351 70.98 166.533 71.2925 166.781C71.5464 166.992 71.771 167.155 71.9664 167.27C72.1617 167.365 72.3961 167.413 72.6695 167.413C73.0015 167.413 73.3043 167.308 73.5777 167.097C73.8512 166.868 74.0465 166.542 74.1637 166.121H75.4235C75.1695 166.963 74.7594 167.624 74.193 168.102C73.6461 168.562 73.0211 168.792 72.3179 168.792C71.9468 168.792 71.6343 168.734 71.3804 168.619C71.146 168.485 70.8824 168.294 70.5894 168.045C70.355 167.854 70.1401 167.71 69.9448 167.614C69.7495 167.499 69.5249 167.442 69.271 167.442C68.5483 167.442 68.06 167.873 67.8061 168.734H66.5463Z" fill="white"/>
<path d="M86.1115 186.366C84.7834 186.366 83.6115 186.107 82.5958 185.59C81.5802 185.054 80.7892 184.308 80.2227 183.35C79.6758 182.374 79.4024 181.235 79.4024 179.933C79.4024 178.172 79.8126 176.554 80.6329 175.08C81.4532 173.587 82.5958 172.41 84.0607 171.548C85.5256 170.668 87.1565 170.227 88.9534 170.227C90.2815 170.227 91.4534 170.495 92.4691 171.031C93.4847 171.548 94.2757 172.295 94.8421 173.271C95.4086 174.228 95.6918 175.358 95.6918 176.66C95.6918 178.44 95.2718 180.067 94.432 181.541C93.5921 183.015 92.4398 184.193 90.9749 185.073C89.5295 185.935 87.9084 186.366 86.1115 186.366ZM86.3459 184.671C87.7326 184.671 88.9729 184.308 90.0667 183.58C91.18 182.853 92.0394 181.886 92.6448 180.68C93.2698 179.474 93.5824 178.172 93.5824 176.775C93.5824 175.205 93.1136 174.008 92.1761 173.185C91.2581 172.362 90.0862 171.95 88.6604 171.95C87.2736 171.95 86.0334 172.314 84.9396 173.042C83.8654 173.769 83.0255 174.736 82.42 175.942C81.8146 177.148 81.5118 178.45 81.5118 179.847C81.5118 181.398 81.9708 182.594 82.8888 183.437C83.8068 184.26 84.9591 184.671 86.3459 184.671Z" fill="white"/>
<path d="M123.364 179.503C122.504 180.594 121.831 181.398 121.342 181.915L124.829 186.136H122.192L119.907 183.35C118.715 184.423 117.514 185.217 116.303 185.734C115.092 186.232 113.784 186.481 112.377 186.481C110.541 186.481 109.067 186.021 107.953 185.102C106.86 184.164 106.313 182.92 106.313 181.369C106.313 179.761 106.86 178.335 107.953 177.09C109.047 175.846 110.522 174.889 112.377 174.219C111.928 173.625 111.596 173.07 111.381 172.553C111.166 172.017 111.059 171.481 111.059 170.945C111.059 169.95 111.313 169.06 111.821 168.275C112.329 167.471 113.032 166.848 113.93 166.408C114.848 165.968 115.873 165.748 117.006 165.748C118.295 165.748 119.331 166.073 120.112 166.724C120.913 167.375 121.313 168.227 121.313 169.28C121.313 169.509 121.284 169.758 121.225 170.026H119.174C119.194 169.911 119.204 169.749 119.204 169.538C119.204 168.887 118.969 168.37 118.5 167.988C118.051 167.605 117.456 167.413 116.713 167.413C115.698 167.413 114.848 167.72 114.164 168.332C113.481 168.945 113.139 169.701 113.139 170.601C113.139 171.098 113.256 171.596 113.491 172.094C113.745 172.592 114.135 173.176 114.663 173.846L120.2 180.536C120.649 180.019 121.127 179.436 121.635 178.785L124.038 175.741H126.235L123.364 179.503ZM112.641 184.729C113.774 184.729 114.829 184.509 115.805 184.068C116.801 183.628 117.797 182.939 118.793 182.001L113.432 175.511C111.87 176.047 110.639 176.794 109.741 177.751C108.862 178.689 108.422 179.799 108.422 181.082C108.422 182.154 108.803 183.035 109.565 183.724C110.346 184.394 111.371 184.729 112.641 184.729Z" fill="white"/>
<path d="M146.142 166.064C149.111 166.064 151.396 166.743 152.998 168.102C154.599 169.462 155.4 171.376 155.4 173.846C155.4 174.516 155.322 175.281 155.166 176.143C154.795 178.21 154.043 180 152.91 181.513C151.777 183.006 150.322 184.155 148.545 184.959C146.787 185.743 144.775 186.136 142.509 186.136H136.445L140.048 166.064H146.142ZM142.802 184.557C145.654 184.557 147.959 183.82 149.716 182.345C151.474 180.852 152.588 178.785 153.056 176.143C153.193 175.454 153.261 174.764 153.261 174.075C153.261 172.046 152.636 170.476 151.386 169.366C150.136 168.256 148.281 167.7 145.82 167.7H141.806L138.788 184.557H142.802Z" fill="white"/>
<path d="M166.916 170.227C168.263 170.227 169.416 170.486 170.373 171.003C171.33 171.5 172.052 172.19 172.541 173.07C173.049 173.951 173.302 174.956 173.302 176.085C173.302 176.602 173.263 177.062 173.185 177.464C173.068 178.038 172.951 178.555 172.834 179.014H159.562C159.503 179.378 159.474 179.723 159.474 180.048C159.474 181.522 159.923 182.661 160.822 183.465C161.74 184.269 162.902 184.671 164.308 184.671C165.656 184.671 166.837 184.356 167.853 183.724C168.869 183.092 169.611 182.24 170.08 181.168H172.277C171.613 182.7 170.548 183.954 169.084 184.93C167.638 185.887 165.949 186.366 164.015 186.366C162.023 186.366 160.421 185.81 159.21 184.7C158.019 183.571 157.423 182.039 157.423 180.106C157.423 179.531 157.482 178.928 157.599 178.297C157.892 176.669 158.478 175.243 159.357 174.018C160.255 172.793 161.359 171.855 162.667 171.204C163.976 170.553 165.392 170.227 166.916 170.227ZM171.076 177.521C171.174 176.985 171.222 176.535 171.222 176.172C171.222 174.812 170.783 173.769 169.904 173.042C169.025 172.314 167.902 171.95 166.535 171.95C165.539 171.95 164.582 172.161 163.664 172.582C162.746 173.003 161.945 173.635 161.261 174.477C160.578 175.32 160.109 176.334 159.855 177.521H171.076Z" fill="white"/>
<path d="M180.687 186.366C179.066 186.366 177.748 186.002 176.732 185.274C175.717 184.528 175.209 183.513 175.209 182.231C175.209 182.001 175.219 181.829 175.238 181.714H177.23C177.152 182.633 177.426 183.37 178.051 183.925C178.676 184.48 179.594 184.758 180.805 184.758C182.035 184.758 183.021 184.509 183.764 184.011C184.506 183.494 184.877 182.814 184.877 181.972C184.877 181.474 184.721 181.053 184.408 180.709C184.096 180.364 183.705 180.086 183.236 179.876C182.787 179.646 182.152 179.388 181.332 179.101C180.316 178.737 179.496 178.402 178.871 178.095C178.266 177.77 177.738 177.33 177.289 176.775C176.859 176.2 176.644 175.482 176.644 174.621C176.644 173.759 176.898 172.994 177.406 172.324C177.914 171.654 178.607 171.137 179.486 170.773C180.385 170.409 181.4 170.227 182.533 170.227C184.115 170.227 185.404 170.61 186.4 171.376C187.416 172.142 187.924 173.156 187.924 174.42C187.924 174.688 187.914 174.889 187.895 175.023H185.961C185.981 174.946 185.99 174.822 185.99 174.65C185.99 173.807 185.648 173.128 184.965 172.611C184.301 172.094 183.441 171.835 182.387 171.835C181.332 171.835 180.453 172.084 179.75 172.582C179.066 173.061 178.725 173.712 178.725 174.535C178.725 175.09 178.891 175.559 179.223 175.942C179.555 176.306 179.965 176.602 180.453 176.832C180.941 177.062 181.596 177.33 182.416 177.636C183.393 178 184.174 178.335 184.76 178.641C185.365 178.947 185.873 179.369 186.283 179.905C186.693 180.441 186.899 181.111 186.899 181.915C186.899 183.274 186.322 184.356 185.17 185.16C184.018 185.964 182.523 186.366 180.687 186.366Z" fill="white"/>
<path d="M190.759 178.268C191.052 176.66 191.638 175.253 192.517 174.047C193.396 172.821 194.47 171.883 195.739 171.232C197.029 170.562 198.406 170.227 199.87 170.227C201.394 170.227 202.644 170.572 203.62 171.261C204.597 171.95 205.232 172.831 205.525 173.903L206.14 170.457H208.191L205.378 186.136H203.327L203.943 182.661C203.279 183.733 202.322 184.624 201.072 185.332C199.841 186.021 198.464 186.366 196.941 186.366C195.671 186.366 194.558 186.107 193.601 185.59C192.644 185.073 191.901 184.346 191.374 183.408C190.847 182.451 190.583 181.331 190.583 180.048C190.583 179.493 190.642 178.9 190.759 178.268ZM204.734 178.297C204.831 177.76 204.88 177.282 204.88 176.861C204.88 175.367 204.421 174.181 203.503 173.3C202.585 172.419 201.394 171.979 199.929 171.979C198.796 171.979 197.732 172.228 196.736 172.726C195.759 173.223 194.929 173.951 194.245 174.908C193.562 175.846 193.103 176.966 192.868 178.268C192.771 178.842 192.722 179.33 192.722 179.732C192.722 181.245 193.171 182.441 194.07 183.322C194.987 184.183 196.179 184.614 197.644 184.614C198.738 184.614 199.783 184.356 200.779 183.839C201.794 183.322 202.644 182.585 203.327 181.628C204.031 180.67 204.499 179.56 204.734 178.297Z" fill="white"/>
<path d="M214.367 173.587C215.011 172.496 215.851 171.654 216.886 171.06C217.922 170.467 219.123 170.17 220.49 170.17L220.109 172.266H219.523C218.117 172.266 216.906 172.62 215.89 173.329C214.875 174.037 214.172 175.205 213.781 176.832L212.111 186.136H210.06L212.873 170.457H214.924L214.367 173.587Z" fill="white"/>
<path d="M224.981 173.587C225.626 172.496 226.466 171.654 227.501 171.06C228.536 170.467 229.737 170.17 231.105 170.17L230.724 172.266H230.138C228.732 172.266 227.521 172.62 226.505 173.329C225.489 174.037 224.786 175.205 224.396 176.832L222.726 186.136H220.675L223.487 170.457H225.538L224.981 173.587Z" fill="white"/>
<path d="M238.321 186.366C236.993 186.366 235.821 186.107 234.805 185.59C233.789 185.054 232.998 184.308 232.432 183.35C231.885 182.374 231.612 181.235 231.612 179.933C231.612 178.172 232.022 176.554 232.842 175.08C233.662 173.587 234.805 172.41 236.27 171.548C237.735 170.668 239.366 170.227 241.163 170.227C242.491 170.227 243.663 170.495 244.678 171.031C245.694 171.548 246.485 172.295 247.051 173.271C247.618 174.228 247.901 175.358 247.901 176.66C247.901 178.44 247.481 180.067 246.641 181.541C245.801 183.015 244.649 184.193 243.184 185.073C241.739 185.935 240.118 186.366 238.321 186.366ZM238.555 184.671C239.942 184.671 241.182 184.308 242.276 183.58C243.389 182.853 244.249 181.886 244.854 180.68C245.479 179.474 245.792 178.172 245.792 176.775C245.792 175.205 245.323 174.008 244.385 173.185C243.467 172.362 242.295 171.95 240.87 171.95C239.483 171.95 238.243 172.314 237.149 173.042C236.075 173.769 235.235 174.736 234.629 175.942C234.024 177.148 233.721 178.45 233.721 179.847C233.721 181.398 234.18 182.594 235.098 183.437C236.016 184.26 237.168 184.671 238.555 184.671Z" fill="white"/>
<path d="M255.975 164.886L252.137 186.136H250.087L253.925 164.886H255.975Z" fill="white"/>
<path d="M262.67 164.886L258.832 186.136H256.782L260.62 164.886H262.67Z" fill="white"/>
<path d="M270.508 186.366C269.18 186.366 268.008 186.107 266.992 185.59C265.977 185.054 265.185 184.308 264.619 183.35C264.072 182.374 263.799 181.235 263.799 179.933C263.799 178.172 264.209 176.554 265.029 175.08C265.85 173.587 266.992 172.41 268.457 171.548C269.922 170.668 271.553 170.227 273.35 170.227C274.678 170.227 275.85 170.495 276.865 171.031C277.881 171.548 278.672 172.295 279.238 173.271C279.805 174.228 280.088 175.358 280.088 176.66C280.088 178.44 279.668 180.067 278.828 181.541C277.988 183.015 276.836 184.193 275.371 185.073C273.926 185.935 272.305 186.366 270.508 186.366ZM270.742 184.671C272.129 184.671 273.369 184.308 274.463 183.58C275.576 182.853 276.436 181.886 277.041 180.68C277.666 179.474 277.979 178.172 277.979 176.775C277.979 175.205 277.51 174.008 276.572 173.185C275.654 172.362 274.483 171.95 273.057 171.95C271.67 171.95 270.43 172.314 269.336 173.042C268.262 173.769 267.422 174.736 266.816 175.942C266.211 177.148 265.908 178.45 265.908 179.847C265.908 181.398 266.367 182.594 267.285 183.437C268.203 184.26 269.355 184.671 270.742 184.671Z" fill="white"/>
<path d="M319.391 166.064L309.957 186.136H307.672L305.621 169.079L297.272 186.136L295.016 186.165L292.965 166.064H295.192L296.686 183.552L305.094 166.064H307.409L309.313 183.609L317.165 166.064H319.391Z" fill="white"/>
<path d="M328.681 170.227C330.029 170.227 331.181 170.486 332.138 171.003C333.095 171.5 333.818 172.19 334.306 173.07C334.814 173.951 335.068 174.956 335.068 176.085C335.068 176.602 335.029 177.062 334.95 177.464C334.833 178.038 334.716 178.555 334.599 179.014H321.327C321.269 179.378 321.239 179.723 321.239 180.048C321.239 181.522 321.689 182.661 322.587 183.465C323.505 184.269 324.667 184.671 326.073 184.671C327.421 184.671 328.603 184.356 329.618 183.724C330.634 183.092 331.376 182.24 331.845 181.168H334.042C333.378 182.7 332.314 183.954 330.849 184.93C329.403 185.887 327.714 186.366 325.78 186.366C323.788 186.366 322.187 185.81 320.976 184.7C319.784 183.571 319.188 182.039 319.188 180.106C319.188 179.531 319.247 178.928 319.364 178.297C319.657 176.669 320.243 175.243 321.122 174.018C322.021 172.793 323.124 171.855 324.433 171.204C325.741 170.553 327.157 170.227 328.681 170.227ZM332.841 177.521C332.939 176.985 332.988 176.535 332.988 176.172C332.988 174.812 332.548 173.769 331.669 173.042C330.79 172.314 329.667 171.95 328.3 171.95C327.304 171.95 326.347 172.161 325.429 172.582C324.511 173.003 323.71 173.635 323.026 174.477C322.343 175.32 321.874 176.334 321.62 177.521H332.841Z" fill="white"/>
<path d="M341.369 173.932C342.072 172.84 343.039 171.95 344.269 171.261C345.5 170.572 346.857 170.227 348.341 170.227C350.275 170.227 351.818 170.792 352.97 171.922C354.142 173.032 354.728 174.544 354.728 176.459C354.728 177.033 354.67 177.636 354.553 178.268C354.26 179.876 353.674 181.293 352.795 182.518C351.916 183.743 350.832 184.691 349.543 185.361C348.273 186.031 346.906 186.366 345.441 186.366C343.937 186.366 342.697 186.031 341.72 185.361C340.744 184.671 340.089 183.781 339.757 182.69L339.142 186.136H337.121L340.958 164.886H342.98L341.369 173.932ZM352.472 178.268C352.57 177.693 352.619 177.205 352.619 176.803C352.619 175.291 352.16 174.114 351.242 173.271C350.343 172.41 349.152 171.979 347.668 171.979C346.574 171.979 345.529 172.237 344.533 172.754C343.537 173.271 342.687 174.008 341.984 174.965C341.281 175.923 340.812 177.033 340.578 178.297C340.48 178.833 340.431 179.311 340.431 179.732C340.431 181.226 340.89 182.412 341.808 183.293C342.726 184.174 343.918 184.614 345.382 184.614C346.515 184.614 347.57 184.365 348.547 183.867C349.543 183.35 350.383 182.613 351.066 181.656C351.769 180.68 352.238 179.55 352.472 178.268Z" fill="white"/>
<path d="M357.213 186.28C356.842 186.28 356.539 186.165 356.305 185.935C356.07 185.705 355.953 185.408 355.953 185.045C355.953 184.585 356.129 184.183 356.48 183.839C356.851 183.494 357.271 183.322 357.74 183.322C358.111 183.322 358.414 183.437 358.648 183.666C358.883 183.877 359 184.164 359 184.528C359 184.987 358.814 185.399 358.443 185.763C358.092 186.107 357.682 186.28 357.213 186.28Z" fill="white"/>
</svg>
