<svg width="633" height="1031" viewBox="0 0 633 1031" fill="none" xmlns="http://www.w3.org/2000/svg">
<path d="M48 1016.81L230.297 5.74877C231.254 1.91626 233.646 0 237.474 0H450.632C454.459 0 456.852 1.91626 457.809 5.74877L632.928 1016.81C633.407 1021.6 631.493 1024 627.187 1024H464.268C459.483 1024 456.852 1021.6 456.373 1016.81L440.584 909.025H240.344L224.555 1016.81C224.077 1021.6 221.684 1024 217.378 1024H53.7416C49.9139 1024 48 1021.6 48 1016.81ZM335.799 338.459L269.77 751.652H411.158L350.871 338.459L342.258 283.846L335.799 338.459Z" fill="#191717"/>
<path d="M199.79 978.921C198.786 984.614 196.432 989.567 192.727 993.78C189.032 997.941 184.529 1000.98 179.219 1002.9C173.867 1004.76 168.216 1005.17 162.266 1004.12L113.13 995.293C107.283 994.262 102.235 991.997 97.9862 988.498C93.6864 984.99 90.5118 980.648 88.4624 975.474C86.3709 970.24 85.8315 964.75 86.8445 959.006C87.8755 953.158 90.204 948.201 93.83 944.133C97.4651 940.015 101.933 937.021 107.234 935.153C112.492 933.224 118.071 932.78 123.969 933.82L131.202 935.095C131.612 935.167 131.781 935.409 131.709 935.819L128.588 953.515C128.516 953.925 128.275 954.094 127.864 954.022L120.632 952.747C117.144 952.131 113.945 952.731 111.034 954.545C108.122 956.358 106.368 958.958 105.771 962.343C105.111 966.087 105.887 969.186 108.099 971.638C110.311 974.091 113.109 975.616 116.494 976.213L165.658 984.881C169.505 985.56 172.858 984.988 175.718 983.165C178.527 981.333 180.216 978.801 180.786 975.57C181.383 972.185 180.547 969.129 178.277 966.401C175.957 963.665 173.13 962.003 169.796 961.415L162.487 960.127C162.076 960.054 161.907 959.813 161.98 959.403L165.127 941.553C165.199 941.143 165.441 940.974 165.851 941.046L173.16 942.335C179.059 943.375 184.2 945.709 188.585 949.338C192.909 953.009 196.125 957.411 198.235 962.543C200.293 967.666 200.812 973.125 199.79 978.921ZM204.02 941.43L99.2143 902.8C98.8221 902.625 98.6621 902.332 98.7345 901.922L102.764 879.071C102.836 878.661 103.086 878.441 103.515 878.41L215.077 878.725C215.599 878.764 215.819 879.015 215.738 879.476L212.658 896.941C212.568 897.454 212.262 897.691 211.74 897.652L199.9 897.31L196.115 918.775L207.358 922.503C207.862 922.645 208.073 922.946 207.991 923.408L204.898 940.95C204.826 941.36 204.533 941.52 204.02 941.43ZM136.831 897.771L179.822 912.65L182.495 897.493L137.116 896.155L131.106 896.048L136.831 897.771ZM220.839 850.548L217.691 868.397C217.619 868.808 217.326 868.968 216.813 868.877L108.616 849.482C108.205 849.409 108.036 849.168 108.109 848.758L113.725 816.905C114.729 811.212 117.037 806.224 120.647 801.942C124.258 797.661 128.646 794.521 133.811 792.523C138.985 790.473 144.522 789.969 150.42 791.009C154.267 791.687 157.651 792.892 160.572 794.623C163.493 796.355 165.89 798.206 167.764 800.175C169.647 802.094 170.988 803.785 171.788 805.248C179.101 800.667 187.014 799.127 195.529 800.629L227.87 806.173C228.383 806.263 228.594 806.565 228.504 807.078L225.356 824.927C225.284 825.338 225.094 825.516 224.786 825.461L192.164 819.709C188.369 819.04 184.851 819.795 181.611 821.974C178.371 824.152 176.407 827.191 175.72 831.089L173.888 841.476L220.178 849.797C220.691 849.887 220.911 850.137 220.839 850.548ZM132.575 820.229L130.187 833.77L154.961 838.138L157.349 824.597C157.919 821.366 157.22 818.281 155.252 815.343C153.294 812.353 150.571 810.551 147.083 809.936C143.749 809.348 140.659 810.072 137.815 812.109C134.918 814.137 133.172 816.844 132.575 820.229ZM228.711 801.402L123.905 762.772C123.513 762.597 123.353 762.305 123.425 761.895L127.454 739.044C127.527 738.634 127.777 738.413 128.205 738.383L239.768 738.698C240.289 738.737 240.51 738.987 240.428 739.449L237.349 756.914C237.258 757.427 236.952 757.664 236.43 757.625L224.591 757.282L220.806 778.748L232.048 782.476C232.552 782.617 232.763 782.919 232.682 783.381L229.589 800.923C229.517 801.333 229.224 801.493 228.711 801.402ZM161.522 757.744L204.513 772.623L207.185 757.466L161.806 756.128L155.796 756.02L161.522 757.744ZM248.927 700.251C247.923 705.945 245.569 710.897 241.864 715.11C238.169 719.271 233.666 722.311 228.356 724.231C223.004 726.09 217.353 726.495 211.403 725.446L162.267 716.623C156.42 715.592 151.372 713.327 147.123 709.828C142.823 706.32 139.649 701.979 137.599 696.804C135.508 691.57 134.969 686.081 135.981 680.336C137.013 674.489 139.341 669.531 142.967 665.464C146.602 661.345 151.07 658.351 156.371 656.483C161.629 654.554 167.208 654.11 173.107 655.15L180.339 656.425C180.749 656.497 180.918 656.739 180.846 657.149L177.725 674.845C177.653 675.255 177.412 675.424 177.001 675.352L169.769 674.077C166.281 673.462 163.082 674.061 160.171 675.875C157.259 677.688 155.505 680.288 154.908 683.673C154.248 687.417 155.024 690.516 157.236 692.969C159.448 695.421 162.246 696.946 165.631 697.543L214.795 706.212C218.642 706.89 221.995 706.318 224.855 704.495C227.664 702.663 229.353 700.132 229.923 696.9C230.52 693.515 229.684 690.459 227.414 687.732C225.094 684.995 222.267 683.333 218.933 682.746L211.624 681.457C211.213 681.384 211.044 681.143 211.117 680.733L214.264 662.883C214.336 662.473 214.578 662.304 214.988 662.376L222.297 663.665C228.196 664.705 233.337 667.039 237.722 670.668C242.046 674.34 245.262 678.741 247.372 683.873C249.43 688.996 249.949 694.455 248.927 700.251ZM260.791 623.965L257.658 641.738C257.576 642.199 257.279 642.385 256.766 642.294L166.902 626.449L163.294 646.915C163.203 647.427 162.902 647.639 162.389 647.548L144.797 644.288C144.387 644.215 144.218 643.974 144.29 643.564L154.845 583.706C154.944 583.142 155.199 582.896 155.609 582.968L173.228 586.075C173.741 586.165 173.961 586.416 173.889 586.826L170.24 607.522L260.13 623.214C260.643 623.304 260.864 623.555 260.791 623.965ZM275.077 542.949L266.096 593.882C266.023 594.292 265.731 594.452 265.218 594.362L156.993 575.12C156.583 575.048 156.414 574.807 156.486 574.396L165.413 523.771C165.485 523.361 165.778 523.201 166.291 523.291L183.909 526.398C184.32 526.47 184.489 526.712 184.416 527.122L178.719 559.436L203.339 563.777L209.037 531.463C209.109 531.053 209.35 530.884 209.761 530.956L227.637 533.95C228.048 534.022 228.217 534.263 228.144 534.674L222.419 567.142L249.963 571.998L255.688 539.53C255.761 539.12 256.053 538.96 256.566 539.051L274.57 542.225C274.98 542.297 275.149 542.539 275.077 542.949ZM280.91 509.866L277.763 527.715C277.69 528.126 277.398 528.286 276.885 528.195L168.687 508.8C168.277 508.727 168.108 508.486 168.18 508.076L173.797 476.223C174.801 470.53 177.108 465.542 180.719 461.261C184.33 456.979 188.718 453.839 193.883 451.841C199.057 449.791 204.593 449.287 210.492 450.327C214.339 451.005 217.722 452.21 220.643 453.941C223.564 455.673 225.961 457.524 227.835 459.493C229.718 461.412 231.059 463.103 231.859 464.566C239.172 459.985 247.086 458.445 255.6 459.947L287.941 465.491C288.454 465.581 288.665 465.883 288.575 466.396L285.428 484.245C285.355 484.656 285.165 484.834 284.858 484.779L252.236 479.027C248.44 478.358 244.922 479.113 241.682 481.292C238.442 483.47 236.478 486.509 235.791 490.407L233.96 500.794L280.249 509.115C280.762 509.205 280.982 509.455 280.91 509.866ZM192.646 479.547L190.259 493.088L215.033 497.456L217.421 483.915C217.99 480.684 217.291 477.599 215.324 474.661C213.365 471.671 210.642 469.869 207.154 469.254C203.82 468.666 200.731 469.39 197.886 471.427C194.99 473.455 193.243 476.162 192.646 479.547ZM294.341 433.697L291.193 451.547C291.103 452.06 290.801 452.271 290.288 452.18L182.064 432.939C181.653 432.866 181.484 432.625 181.557 432.215L184.677 414.519C184.749 414.109 184.99 413.94 185.401 414.012L293.68 432.946C294.193 433.036 294.413 433.287 294.341 433.697ZM303.151 392.729C302.165 398.32 299.82 403.222 296.116 407.434C292.42 411.595 287.939 414.666 282.671 416.646C277.361 418.566 271.834 419.019 266.089 418.006L258.857 416.731C258.293 416.631 258.056 416.325 258.147 415.812L261.267 398.116C261.339 397.706 261.657 397.551 262.222 397.65L269.454 398.925C272.89 399.531 276.069 398.902 278.989 397.037C281.858 395.163 283.577 392.61 284.147 389.379C284.726 386.096 283.962 383.079 281.856 380.328C279.698 377.567 276.953 375.893 273.619 375.305C269.772 374.627 265.969 376.548 262.21 381.068C261.553 381.798 260.747 382.767 259.794 383.974C258.798 385.12 257.655 386.506 256.364 388.129C255.073 389.752 253.817 391.329 252.595 392.859C251.322 394.38 250.109 395.858 248.957 397.294C244.559 402.442 239.572 405.979 233.996 407.905C228.379 409.77 222.39 410.142 216.03 409.02C210.182 407.989 205.153 405.622 200.94 401.917C196.779 398.222 193.746 393.826 191.842 388.731C189.895 383.575 189.401 378.278 190.36 372.841C191.346 367.251 193.635 362.366 197.228 358.186C200.872 354.016 205.272 350.958 210.428 349.011C215.593 347.013 221.073 346.525 226.869 347.547L239.795 349.826C240.205 349.898 240.374 350.14 240.302 350.55L237.182 368.246C237.109 368.656 236.868 368.825 236.458 368.753L223.505 366.628C219.812 365.976 216.608 366.601 213.893 368.502C211.177 370.404 209.539 372.944 208.979 376.124C208.409 379.356 209.152 382.343 211.207 385.085C213.262 387.827 215.982 389.497 219.367 390.094C222.804 390.7 225.803 390.488 228.364 389.459C230.934 388.378 233.615 386.074 236.405 382.547C236.683 382.173 237.363 381.314 238.446 379.972C239.529 378.629 240.741 377.15 242.084 375.536C243.384 373.861 244.576 372.353 245.659 371.01C246.69 369.658 247.31 368.842 247.518 368.561C251.364 363.845 255.683 360.349 260.474 358.073C265.274 355.747 270.777 355.13 276.983 356.225C282.984 357.283 288.126 359.617 292.407 363.228C296.68 366.89 299.79 371.299 301.737 376.455C303.683 381.611 304.155 387.036 303.151 392.729ZM314.921 316.982L311.787 334.755C311.706 335.216 311.408 335.402 310.895 335.311L221.032 319.466L217.423 339.932C217.333 340.444 217.031 340.656 216.518 340.565L198.926 337.305C198.516 337.232 198.347 336.991 198.419 336.581L208.974 276.723C209.073 276.159 209.328 275.913 209.739 275.985L227.358 279.092C227.87 279.182 228.091 279.433 228.018 279.843L224.369 300.539L314.26 316.231C314.773 316.321 314.993 316.572 314.921 316.982ZM323.4 268.896L320.252 286.745C320.162 287.258 319.86 287.469 319.347 287.379L211.122 268.137C210.712 268.065 210.543 267.824 210.615 267.413L213.736 249.718C213.808 249.307 214.049 249.138 214.46 249.211L322.739 268.144C323.252 268.235 323.472 268.485 323.4 268.896ZM332.603 225.697C331.599 231.39 329.245 236.343 325.541 240.556C321.845 244.717 317.343 247.757 312.033 249.677C306.681 251.536 301.03 251.941 295.08 250.892L245.944 242.069C240.096 241.038 235.049 238.773 230.8 235.274C226.5 231.765 223.326 227.424 221.276 222.25C219.185 217.016 218.645 211.526 219.658 205.782C220.689 199.934 223.018 194.977 226.644 190.909C230.279 186.79 234.747 183.797 240.048 181.929C245.306 180 250.885 179.556 256.783 180.596L264.015 181.871C264.426 181.943 264.595 182.185 264.522 182.595L261.402 200.291C261.33 200.701 261.088 200.87 260.678 200.798L253.446 199.522C249.958 198.907 246.758 199.507 243.847 201.32C240.936 203.134 239.182 205.734 238.585 209.119C237.925 212.863 238.701 215.962 240.912 218.414C243.124 220.867 245.923 222.392 249.308 222.989L298.472 231.657C302.319 232.336 305.672 231.763 308.532 229.941C311.341 228.109 313.03 225.577 313.6 222.346C314.197 218.961 313.36 215.905 311.091 213.177C308.771 210.441 305.943 208.779 302.609 208.191L295.3 206.902C294.89 206.83 294.721 206.589 294.793 206.178L297.941 188.329C298.013 187.918 298.254 187.749 298.665 187.822L305.974 189.111C311.872 190.151 317.014 192.485 321.398 196.114C325.722 199.785 328.939 204.187 331.049 209.319C333.107 214.441 333.625 219.901 332.603 225.697ZM336.834 188.206L232.028 149.576C231.636 149.401 231.476 149.108 231.548 148.698L235.577 125.847C235.65 125.437 235.9 125.217 236.329 125.186L347.891 125.501C348.413 125.54 348.633 125.791 348.552 126.252L345.472 143.717C345.382 144.23 345.075 144.467 344.553 144.428L332.714 144.086L328.929 165.551L340.171 169.279C340.675 169.421 340.887 169.722 340.805 170.184L337.712 187.726C337.64 188.136 337.347 188.296 336.834 188.206ZM269.645 144.547L312.636 159.426L315.309 144.269L269.93 142.931L263.919 142.823L269.645 144.547ZM356.656 89.2856C355.671 94.8764 353.325 99.778 349.621 103.99C345.926 108.152 341.444 111.222 336.177 113.202C330.867 115.122 325.339 115.575 319.595 114.562L312.363 113.287C311.798 113.187 311.561 112.881 311.652 112.368L314.772 94.6724C314.844 94.2621 315.163 94.1067 315.727 94.2062L322.959 95.4814C326.396 96.0874 329.574 95.4578 332.494 93.5929C335.363 91.7188 337.083 89.1661 337.653 85.9347C338.231 82.652 337.468 79.635 335.361 76.8837C333.204 74.1234 330.458 72.4493 327.124 71.8614C323.277 71.1831 319.474 73.104 315.716 77.6241C315.058 78.3544 314.253 79.323 313.299 80.53C312.304 81.6766 311.161 83.0616 309.869 84.685C308.578 86.3084 307.322 87.885 306.1 89.4148C304.827 90.9356 303.615 92.4142 302.462 93.8505C298.064 98.9983 293.077 102.535 287.502 104.461C281.884 106.326 275.895 106.698 269.535 105.577C263.688 104.545 258.658 102.178 254.446 98.4733C250.284 94.778 247.252 90.3825 245.347 85.2868C243.4 80.1309 242.906 74.8344 243.865 69.3975C244.851 63.8066 247.14 58.9216 250.733 54.7424C254.377 50.5723 258.777 47.5138 263.933 45.5671C269.098 43.569 274.579 43.081 280.375 44.103L293.3 46.3821C293.711 46.4545 293.88 46.6958 293.807 47.1061L290.687 64.8019C290.615 65.2122 290.373 65.3812 289.963 65.3089L277.01 63.1836C273.317 62.5325 270.113 63.1574 267.398 65.0586C264.683 66.9597 263.045 69.5004 262.484 72.6805C261.914 75.9119 262.657 78.8987 264.712 81.641C266.767 84.3832 269.487 86.0528 272.872 86.6498C276.309 87.2557 279.308 87.0441 281.869 86.0149C284.44 84.9344 287.12 82.6305 289.91 79.1031C290.188 78.7289 290.868 77.8705 291.951 76.5277C293.034 75.185 294.247 73.7064 295.589 72.0921C296.889 70.4174 298.081 68.9087 299.164 67.5659C300.196 66.2141 300.815 65.3979 301.024 65.1173C304.87 60.401 309.188 56.9051 313.979 54.6295C318.779 52.3027 324.282 51.6864 330.488 52.7807C336.49 53.8389 341.631 56.1734 345.913 59.7843C350.186 63.4465 353.295 67.8556 355.242 73.0115C357.189 78.1675 357.66 83.5922 356.656 89.2856Z" fill="white"/>
</svg>
