<svg width="557" height="1024" viewBox="0 0 557 1024" fill="none" xmlns="http://www.w3.org/2000/svg">
<path d="M277.457 1024C225.999 1024 179.64 1011.21 138.381 985.635C96.6579 960.058 63.0479 925.646 37.5506 882.398C12.5169 839.15 0 790.787 0 737.308V284.599C0 232.516 12.7486 185.083 38.2459 142.3C63.2797 99.0518 96.8897 64.6394 139.076 39.0627C181.263 13.0209 227.39 0 277.457 0C329.842 0 377.128 12.5559 419.315 37.6676C461.501 63.2443 494.879 97.4242 519.449 140.207C544.483 182.99 557 231.121 557 284.599V350.169C557 353.889 554.682 355.749 550.046 355.749H390.109C386.4 355.749 384.546 353.889 384.546 350.169V295.76C384.546 259.488 374.347 229.493 353.949 205.777C333.551 182.06 308.054 170.202 277.457 170.202C250.105 170.202 225.767 181.595 204.442 204.381C183.117 227.168 172.454 253.907 172.454 284.599V737.308C172.454 768.465 182.885 795.437 203.747 818.223C224.608 840.545 249.178 851.706 277.457 851.706C308.054 851.706 333.551 840.777 353.949 818.921C374.347 796.599 384.546 769.395 384.546 737.308V666.856H285.106C280.007 666.856 277.457 664.53 277.457 659.88V500.142C277.457 495.491 280.007 493.166 285.106 493.166H551.437C555.146 493.166 557 495.491 557 500.142V737.308C557 790.787 544.483 839.15 519.449 882.398C493.952 925.646 460.342 960.058 418.619 985.635C376.896 1011.21 329.842 1024 277.457 1024Z" fill="white"/>
<path d="M195 786.922L195 804.891C195 805.411 194.74 805.672 194.219 805.672L84.2969 805.359C83.8802 805.359 83.6719 805.151 83.6719 804.734L83.6719 773.953C83.6719 764.161 86.6667 756.427 92.6562 750.75C98.5937 745.021 106.693 742.156 116.953 742.156C124.453 742.156 130.99 743.641 136.562 746.609C142.083 749.63 146.354 753.536 149.375 758.328C152.396 763.12 153.906 768.328 153.906 773.953L153.906 786.141L194.219 786.141C194.74 786.141 195 786.401 195 786.922ZM102.656 773.953L102.812 786.141L134.531 786.141L134.531 773.953C134.531 770.568 132.917 767.625 129.687 765.125C126.406 762.625 122.161 761.375 116.953 761.375C112.786 761.375 109.375 762.495 106.719 764.734C104.01 766.974 102.656 770.047 102.656 773.953ZM195 713.797L195 731.922C195 732.339 194.74 732.547 194.219 732.547L84.2969 732.234C83.8802 732.234 83.6719 732.026 83.6719 731.609L83.6719 699.266C83.6719 693.484 85.0781 688.172 87.8906 683.328C90.7031 678.484 94.4792 674.63 99.2187 671.766C103.958 668.849 109.323 667.391 115.312 667.391C119.219 667.391 122.76 667.99 125.937 669.187C129.115 670.385 131.797 671.792 133.984 673.406C136.172 674.969 137.786 676.401 138.828 677.703C145.234 671.922 152.76 669.031 161.406 669.031L194.219 668.875C194.74 668.875 195 669.135 195 669.656L195 687.781C195 688.198 194.844 688.406 194.531 688.406L161.406 688.406C157.552 688.406 154.219 689.76 151.406 692.469C148.594 695.177 147.187 698.51 147.187 702.469L147.187 713.016L194.219 713.172C194.74 713.172 195 713.38 195 713.797ZM102.812 699.266L102.812 713.016L127.969 713.016L127.969 699.266C127.969 695.984 126.745 693.068 124.297 690.516C121.849 687.911 118.854 686.609 115.312 686.609C111.927 686.609 109.01 687.859 106.562 690.359C104.062 692.859 102.812 695.828 102.812 699.266ZM196.562 625.75C196.562 631.427 195.104 636.661 192.187 641.453C189.271 646.193 185.391 650.021 180.547 652.937C175.651 655.802 170.286 657.234 164.453 657.234L113.75 657.078C107.812 657.078 102.474 655.646 97.7344 652.781C92.9427 649.969 89.1146 646.167 86.25 641.375C83.3333 636.583 81.875 631.375 81.875 625.75C81.875 619.917 83.3073 614.682 86.1719 610.047C89.0364 605.359 92.8906 601.609 97.7344 598.797C102.526 595.932 107.865 594.5 113.75 594.5L164.453 594.344C170.286 594.344 175.625 595.75 180.469 598.562C185.365 601.427 189.271 605.229 192.187 609.969C195.104 614.708 196.562 619.969 196.562 625.75ZM177.266 625.75C177.266 622.521 175.964 619.708 173.359 617.312C170.703 614.917 167.734 613.719 164.453 613.719L113.75 613.875C110.208 613.875 107.214 614.995 104.766 617.234C102.318 619.474 101.094 622.312 101.094 625.75C101.094 629.031 102.292 631.844 104.687 634.187C107.083 636.531 110.104 637.703 113.75 637.703L164.453 637.703C167.943 637.703 170.964 636.531 173.516 634.187C176.016 631.844 177.266 629.031 177.266 625.75ZM195 552.156L195 570.516C195 570.88 194.792 571.062 194.375 571.062L148.906 570.906L84.2969 592.312C83.8802 592.417 83.6719 592.26 83.6719 591.844L83.6719 574.031C83.6719 573.51 83.8802 573.198 84.2969 573.094L127.344 561.297L84.2969 549.266C83.8802 549.161 83.6719 548.901 83.6719 548.484L83.6719 530.516C83.6719 530.099 83.8802 529.943 84.2969 530.047L148.281 551.687L194.375 551.531C194.792 551.531 195 551.74 195 552.156ZM195 468.953L195 520.672C195 521.089 194.74 521.297 194.219 521.297L84.2969 521.141C83.8802 521.141 83.6719 520.932 83.6719 520.516L83.6719 469.109C83.6719 468.693 83.9323 468.484 84.4531 468.484L102.344 468.484C102.76 468.484 102.969 468.693 102.969 469.109L102.969 501.922L127.969 501.922L127.969 469.109C127.969 468.693 128.177 468.484 128.594 468.484L146.719 468.328C147.135 468.328 147.344 468.536 147.344 468.953L147.344 501.922L175.312 501.922L175.312 468.953C175.312 468.536 175.573 468.328 176.094 468.328L194.375 468.328C194.792 468.328 195 468.536 195 468.953ZM196.562 424.656C196.562 430.437 195.104 435.724 192.187 440.516C189.271 445.255 185.365 449.031 180.469 451.844C175.521 454.604 170.026 455.984 163.984 455.984L114.062 455.828C108.125 455.828 102.76 454.474 97.9687 451.766C93.125 449.057 89.2448 445.333 86.3281 440.594C83.3594 435.802 81.875 430.49 81.875 424.656C81.875 418.719 83.3073 413.432 86.1719 408.797C89.0364 404.109 92.9166 400.385 97.8125 397.625C102.656 394.812 108.073 393.406 114.062 393.406L121.406 393.406C121.823 393.406 122.031 393.615 122.031 394.031L122.031 412C122.031 412.417 121.823 412.625 121.406 412.625L114.062 412.625C110.521 412.625 107.474 413.771 104.922 416.062C102.37 418.354 101.094 421.219 101.094 424.656C101.094 428.458 102.396 431.375 105 433.406C107.604 435.437 110.625 436.453 114.062 436.453L163.984 436.453C167.891 436.453 171.094 435.307 173.594 433.016C176.042 430.724 177.266 427.937 177.266 424.656C177.266 421.219 175.911 418.354 173.203 416.062C170.443 413.771 167.37 412.625 163.984 412.625L156.562 412.625C156.146 412.625 155.937 412.417 155.937 412L155.937 393.875C155.937 393.458 156.146 393.25 156.562 393.25L163.984 393.25C169.974 393.25 175.443 394.656 180.391 397.469C185.286 400.333 189.219 404.109 192.187 408.797C195.104 413.484 196.562 418.771 196.562 424.656ZM195 347.469L195 365.516C195 365.984 194.74 366.219 194.219 366.219L102.969 366.219L102.969 387C102.969 387.521 102.708 387.781 102.187 387.781L84.2969 387.625C83.8802 387.625 83.6719 387.417 83.6719 387L83.6719 326.219C83.6719 325.646 83.8802 325.359 84.2969 325.359L102.187 325.359C102.708 325.359 102.969 325.568 102.969 325.984L102.969 347L194.219 346.844C194.74 346.844 195 347.052 195 347.469ZM196.562 287.937C196.562 293.615 195.104 298.849 192.187 303.641C189.271 308.38 185.391 312.208 180.547 315.125C175.651 317.99 170.286 319.422 164.453 319.422L113.75 319.266C107.812 319.266 102.474 317.833 97.7344 314.969C92.9427 312.156 89.1146 308.354 86.25 303.562C83.3333 298.771 81.875 293.562 81.875 287.937C81.875 282.104 83.3073 276.87 86.1719 272.234C89.0364 267.547 92.8906 263.797 97.7344 260.984C102.526 258.12 107.865 256.687 113.75 256.687L164.453 256.531C170.286 256.531 175.625 257.937 180.469 260.75C185.365 263.615 189.271 267.417 192.187 272.156C195.104 276.896 196.562 282.156 196.562 287.937ZM177.266 287.937C177.266 284.708 175.964 281.896 173.359 279.5C170.703 277.104 167.734 275.906 164.453 275.906L113.75 276.062C110.208 276.062 107.214 277.182 104.766 279.422C102.318 281.661 101.094 284.5 101.094 287.937C101.094 291.219 102.292 294.031 104.687 296.375C107.083 298.719 110.104 299.891 113.75 299.891L164.453 299.891C167.943 299.891 170.964 298.719 173.516 296.375C176.016 294.031 177.266 291.219 177.266 287.937ZM196.562 217.234C196.562 222.911 195.104 228.146 192.187 232.937C189.271 237.677 185.391 241.479 180.547 244.344C175.651 247.156 170.286 248.562 164.453 248.562L157.109 248.562C156.536 248.562 156.25 248.302 156.25 247.781L156.25 229.812C156.25 229.396 156.536 229.187 157.109 229.187L164.453 229.187C167.943 229.187 170.964 228.016 173.516 225.672C176.016 223.328 177.266 220.516 177.266 217.234C177.266 213.901 175.99 211.062 173.437 208.719C170.833 206.375 167.839 205.203 164.453 205.203C160.547 205.203 157.135 207.755 154.219 212.859C153.698 213.693 153.073 214.786 152.344 216.141C151.562 217.443 150.677 219.005 149.687 220.828C148.698 222.651 147.734 224.422 146.797 226.141C145.807 227.859 144.87 229.526 143.984 231.141C140.547 236.974 136.25 241.323 131.094 244.187C125.885 247 120.052 248.406 113.594 248.406C107.656 248.406 102.292 246.948 97.5 244.031C92.7604 241.115 89.0104 237.312 86.25 232.625C83.4375 227.885 82.0312 222.755 82.0312 217.234C82.0312 211.557 83.4375 206.349 86.25 201.609C89.1146 196.87 92.9166 193.094 97.6562 190.281C102.396 187.417 107.708 185.984 113.594 185.984L126.719 185.984C127.135 185.984 127.344 186.193 127.344 186.609L127.344 204.578C127.344 204.995 127.135 205.203 126.719 205.203L113.594 205.359C109.844 205.359 106.797 206.531 104.453 208.875C102.109 211.219 100.937 214.005 100.937 217.234C100.937 220.516 102.187 223.328 104.687 225.672C107.187 228.016 110.156 229.187 113.594 229.187C117.083 229.187 120 228.458 122.344 227C124.687 225.49 126.927 222.755 129.062 218.797C129.271 218.38 129.792 217.417 130.625 215.906C131.458 214.396 132.396 212.729 133.437 210.906C134.427 209.031 135.339 207.339 136.172 205.828C136.953 204.318 137.422 203.406 137.578 203.094C140.547 197.781 144.193 193.589 148.516 190.516C152.839 187.391 158.151 185.828 164.453 185.828C170.547 185.828 176.016 187.234 180.859 190.047C185.703 192.911 189.531 196.714 192.344 201.453C195.156 206.193 196.562 211.453 196.562 217.234Z" fill="#191717"/>
</svg>
