<svg width="667" height="1026" viewBox="0 0 667 1026" fill="none" xmlns="http://www.w3.org/2000/svg">
<path d="M178.983 1024H1L0 0H189.03C192.858 0 196.207 1.91626 199.078 5.74877L333.282 199.77L466.769 5.74877C469.64 1.91626 473.229 0 477.535 0H657.67C661.976 0 664.129 1.91626 664.129 5.74877L667 1024H489L487.582 265.881L333.282 490.083L180.418 265.881L178.983 1024Z" fill="#fff"/>
<path d="M385.504 983.873L385.504 1026L276.116 1026L276.116 984.3C276.116 973.038 278.306 963.308 282.685 955.11C287.03 946.877 293.297 940.533 301.487 936.078C309.641 931.587 319.415 929.342 330.81 929.342C342.205 929.342 351.997 931.57 360.187 936.025C368.341 940.48 374.608 946.788 378.988 954.95C383.332 963.112 385.504 972.753 385.504 983.873ZM360.294 996.276L360.294 984.942C360.294 979.524 359.421 974.909 357.677 971.095C355.932 967.246 352.923 964.324 348.65 962.328C344.377 960.296 338.43 959.28 330.81 959.28C323.19 959.28 317.243 960.314 312.97 962.381C308.697 964.413 305.688 967.407 303.944 971.363C302.199 975.283 301.326 980.095 301.326 985.797L301.326 996.276L360.294 996.276Z" fill="#fff"/>
<path d="M276.116 885.865L385.504 885.865L385.504 915.589L276.116 915.589L276.116 885.865Z" fill="#fff"/>
<path d="M310.3 812.757C306.739 813.042 303.961 814.378 301.967 816.766C299.973 819.118 298.976 822.7 298.976 827.512C298.976 830.577 299.35 833.09 300.098 835.05C300.81 836.975 301.789 838.4 303.036 839.327C304.282 840.253 305.706 840.735 307.309 840.77C308.626 840.842 309.819 840.61 310.887 840.075C311.92 839.505 312.864 838.614 313.718 837.402C314.537 836.19 315.285 834.64 315.961 832.751C316.638 830.862 317.243 828.617 317.777 826.015L319.7 817.034C320.982 810.975 322.674 805.789 324.774 801.476C326.875 797.164 329.35 793.635 332.199 790.891C335.012 788.147 338.181 786.133 341.706 784.85C345.231 783.531 349.077 782.854 353.243 782.818C360.436 782.854 366.525 784.654 371.51 788.218C376.496 791.782 380.288 796.879 382.887 803.508C385.487 810.101 386.786 818.031 386.786 827.298C386.786 836.814 385.38 845.118 382.567 852.211C379.754 859.268 375.427 864.757 369.588 868.677C363.712 872.562 356.199 874.522 347.047 874.558L347.047 846.33C350.395 846.152 353.208 845.314 355.487 843.818C357.766 842.321 359.493 840.218 360.668 837.509C361.843 834.765 362.43 831.504 362.43 827.726C362.43 824.554 362.039 821.898 361.255 819.76C360.472 817.622 359.386 816 357.997 814.895C356.608 813.79 355.024 813.22 353.243 813.184C351.57 813.22 350.11 813.772 348.864 814.842C347.582 815.875 346.442 817.586 345.445 819.974C344.412 822.362 343.451 825.587 342.561 829.65L340.211 840.556C338.11 850.251 334.602 857.896 329.688 863.491C324.739 869.051 317.991 871.813 309.445 871.778C302.501 871.813 296.43 869.96 291.231 866.218C285.997 862.44 281.92 857.219 279 850.554C276.08 843.853 274.62 836.173 274.62 827.512C274.62 818.673 276.098 811.028 279.053 804.577C282.009 798.126 286.175 793.154 291.552 789.661C296.893 786.133 303.142 784.351 310.3 784.315L310.3 812.757Z" fill="#fff"/>
<path d="M385.504 771.511L276.116 771.511L276.116 692.603L300.045 692.603L300.045 741.787L318.846 741.787L318.846 696.666L342.774 696.666L342.774 741.787L361.576 741.787L361.576 692.816L385.504 692.816L385.504 771.511Z" fill="#fff"/>
<path d="M276.116 583.127L385.504 583.127L385.504 607.933L328.033 647.495L328.033 648.136L385.504 648.136L385.504 677.861L276.116 677.861L276.116 652.627L333.374 613.707L333.374 612.852L276.116 612.852L276.116 583.127ZM265.861 644.929L265.861 659.47C258.169 659.47 252.454 657.706 248.715 654.177C244.941 650.649 243.036 646.354 243 641.293C243 638.513 243.445 636.161 244.335 634.236C245.19 632.276 246.205 630.565 247.38 629.104C248.555 627.643 249.588 626.324 250.478 625.148C251.332 623.936 251.76 622.689 251.76 621.406C251.724 619.338 250.976 617.877 249.516 617.022C248.056 616.131 246.027 615.667 243.427 615.632L243.427 601.304C250.976 601.411 256.691 603.229 260.573 606.757C264.454 610.25 266.43 614.491 266.501 619.481C266.537 622.261 266.11 624.631 265.22 626.591C264.329 628.516 263.315 630.191 262.175 631.617C261 633.007 259.967 634.308 259.077 635.519C258.187 636.731 257.742 638.014 257.742 639.369C257.742 641.079 258.436 642.434 259.825 643.432C261.178 644.43 263.19 644.929 265.861 644.929Z" fill="#fff"/>
<path d="M330.81 463C342.988 463 353.261 465.37 361.629 470.11C369.961 474.851 376.282 481.248 380.59 489.303C384.863 497.358 387 506.339 387 516.247C387 526.227 384.846 535.244 380.537 543.299C376.193 551.318 369.855 557.698 361.522 562.438C353.154 567.142 342.917 569.495 330.81 569.495C318.632 569.495 308.377 567.142 300.044 562.438C291.677 557.698 285.356 551.318 281.083 543.299C276.774 535.244 274.62 526.227 274.62 516.247C274.62 506.339 276.774 497.358 281.083 489.303C285.356 481.248 291.677 474.851 300.044 470.11C308.377 465.37 318.632 463 330.81 463ZM330.81 493.58C324.258 493.58 318.739 494.453 314.252 496.199C309.73 497.91 306.312 500.459 303.997 503.844C301.647 507.195 300.472 511.329 300.472 516.247C300.472 521.166 301.647 525.318 303.997 528.704C306.312 532.054 309.73 534.602 314.252 536.349C318.739 538.06 324.258 538.915 330.81 538.915C337.362 538.915 342.899 538.06 347.421 536.349C351.908 534.602 355.326 532.054 357.677 528.704C359.991 525.318 361.148 521.166 361.148 516.247C361.148 511.329 359.991 507.195 357.677 503.844C355.326 500.459 351.908 497.91 347.421 496.199C342.899 494.453 337.362 493.58 330.81 493.58Z" fill="#fff"/>
</svg>
