<svg width="569" height="1024" viewBox="0 0 569 1024" fill="none" xmlns="http://www.w3.org/2000/svg">
<path d="M283.44 1024C232.548 1024 185.426 1010.77 142.073 984.315C98.7209 957.859 64.0861 922.427 38.1689 878.018C12.723 833.137 0 784.24 0 731.327L2.82733 0H176.708V731.327C176.708 763.925 187.075 791.799 207.809 814.948C228.542 837.625 253.753 848.963 283.44 848.963C314.54 848.963 340.458 837.625 361.191 814.948C381.925 791.799 392.292 763.925 392.292 731.327V0H569V731.327C569 784.712 556.277 833.845 530.831 878.727C504.914 923.135 470.515 958.568 427.634 985.024C384.752 1011.01 336.688 1024 283.44 1024Z" fill="#191717"/>
<path d="M236 285.279L333 257L333 286.028L273.322 299.138L273.322 299.887L333 315.431L333 338.279L273.133 353.824L273.133 354.573L333 367.682L333 396.711L236 368.432L236 343.523L290.184 327.23L290.184 326.481L236 310.187L236 285.279Z" fill="#191717"/>
<path d="M236 405.138L333 405.138L333 474.245L311.781 474.245L311.781 431.17L295.109 431.17L295.109 470.686L273.891 470.686L273.891 431.17L257.219 431.17L257.219 474.057L236 474.057L236 405.138Z" fill="#191717"/>
<path d="M236 487.155L333 487.155L333 528.731C333 536.035 332.005 542.169 330.016 547.132C328.027 552.126 325.217 555.887 321.585 558.415C317.954 560.975 313.676 562.254 308.75 562.254C305.182 562.254 301.93 561.474 298.993 559.913C296.057 558.384 293.594 556.23 291.604 553.452C289.647 550.674 288.289 547.428 287.531 543.714L286.584 543.714C286.426 547.834 285.368 551.579 283.411 554.95C281.485 558.322 278.816 561.006 275.406 563.004C272.028 565.001 268.049 566 263.471 566C258.166 566 253.445 564.627 249.309 561.88C245.173 559.164 241.92 555.294 239.552 550.269C237.184 545.243 236 539.25 236 532.29L236 487.155ZM257.029 513.187L257.029 525.36C257.029 529.73 257.85 533.008 259.492 535.192C261.166 537.377 263.629 538.47 266.881 538.47C269.154 538.47 271.08 537.955 272.659 536.925C274.238 535.895 275.438 534.428 276.259 532.524C277.08 530.651 277.49 528.388 277.49 525.735L277.49 513.187L257.029 513.187ZM293.783 513.187L293.783 523.862C293.783 526.141 294.146 528.154 294.873 529.902C295.599 531.65 296.641 533.008 297.999 533.975C299.388 534.974 301.077 535.473 303.066 535.473C306.066 535.473 308.355 534.412 309.934 532.29C311.544 530.167 312.35 527.483 312.35 524.237L312.35 513.187L293.783 513.187Z" fill="#191717"/>
</svg>
